<?xml version="1.0" encoding="utf-8" ?><svg xmlns="http://www.w3.org/2000/svg" xmlns:xlink="http://www.w3.org/1999/xlink" width="768" height="1344" viewBox="0 0 768 1344"><path fill="#120F1F" d="M0 0L136.661 0L294.081 0L346.953 0L412.293 0L607.673 0L700.851 0L732.76 0L768 0L768 148.925L768 290.543L768 393.329L768 811.639L768 985.717L768 1141.66L768 1197.44L768 1250.09L768 1344L629.233 1344L445.281 1344L349.274 1344L160.239 1344L82.4518 1344L36.0556 1344L0 1344L0 1192.28L0 1031.77L0 928.382L0 547.135L0 468.605L0 357.198L0 213.223L0 158.334L0 108.161L0 0Z"/><defs><linearGradient id="gradient_0" gradientUnits="userSpaceOnUse" x1="133.46886" y1="344.0173" x2="-24.767242" y2="277.72092"><stop offset="0" stop-color="#F3A24E"/><stop offset="1" stop-color="#7B0A72"/></linearGradient></defs><path fill="url(#gradient_0)" d="M143.649 117.987C158.432 115.969 184.434 123.441 194.438 134.722C194.817 139.154 210.046 150.484 209.839 156.912C208.784 161.275 206.067 166.385 205.117 170.679C199.434 196.384 181.454 214.58 162.191 231.187C151.463 240.436 144.756 247.945 136.404 259.412C133.85 262.917 124.784 264.141 123.446 267.117L124.473 267.374C100.131 288.164 105.122 305.775 88.7015 329.286C65.9463 361.866 18.48 379.766 30.9302 428.676C40.5063 453.046 57.5959 462.929 57.7886 490.561C57.8743 498.394 56.2955 506.157 53.1568 513.335C47.0488 527.133 35.6748 537.916 21.5685 543.282C13.6802 546.288 8.26625 546.801 0 547.135L0 468.605L0 357.198L0 213.223C11.4232 208.426 21.2112 207.365 33.3497 205.463C54.2437 200.251 58.5538 194.02 71.2415 178.375C78.2112 164.417 84.0033 151.999 94.9397 140.643C107.323 127.784 125.543 118.233 143.649 117.987Z"/><path fill="#693788" d="M0 213.223C11.4232 208.426 21.2112 207.365 33.3497 205.463C32.1942 207.107 30.0736 207.042 27.7031 207.486C18.3336 209.239 8.14183 209.914 0 215.285C8.45833 213.76 15.0325 209.939 23.3024 210.339C55.9775 211.921 77.8378 227.733 82.5245 261.545C85.2215 281.002 85.9246 311.187 75.535 329.463C65.3632 344.397 18.5598 355.082 2.20684 349.824C2.19192 352.192 2.50909 355.162 1.2605 356.95L0 357.198L0 213.223Z"/><defs><linearGradient id="gradient_1" gradientUnits="userSpaceOnUse" x1="20.889645" y1="501.44315" x2="44.040733" y2="525.11536"><stop offset="0" stop-color="#ED9A4B"/><stop offset="1" stop-color="#F6B54E"/></linearGradient></defs><path fill="url(#gradient_1)" d="M52.8818 469.88C45.1885 454.532 35.8667 445.603 29.7628 428.921L30.9302 428.676C40.5063 453.046 57.5959 462.929 57.7886 490.561C57.8743 498.394 56.2955 506.157 53.1568 513.335C47.0488 527.133 35.6748 537.916 21.5685 543.282C13.6802 546.288 8.26625 546.801 0 547.135L0 468.605C0.320497 469.073 0.616575 469.544 0.926631 470.018C3.18898 473.472 1.996 520.269 1.98272 527.502C20.5366 517.91 34.7414 509.293 43.7205 489.425C46.4142 483.465 49.3153 475.027 52.8818 469.88Z"/><path fill="#DA323C" d="M71.2415 178.375C78.2112 164.417 84.0033 151.999 94.9397 140.643C107.323 127.784 125.543 118.233 143.649 117.987C145.025 118.12 146.457 118.057 147.536 118.718C143.377 119.511 139.721 119.484 135.738 120.038C127.157 121.233 115.729 126.088 108.619 131.002C120.779 129.832 129.798 133.609 130.747 147.373C125.339 159.165 110.672 161.206 105.106 148.589C103.602 145.18 103.85 139.302 101.26 136.992C92.939 139.565 77.4193 168.42 73.2426 176.882C72.7841 177.811 72.3712 178.131 71.2415 178.375Z"/><path fill="#BF5158" d="M742.469 950.664C751.563 939.378 761.439 915.076 766.031 900.713L765.968 955.889C765.935 962.885 765.345 978.677 766.068 985.042L768 985.717L768 1141.66C758.462 1144.08 749.508 1146.05 740.204 1149.33C716.939 1161.42 713.561 1176.05 702.468 1198.28C685.889 1231.51 647.984 1247.67 612.431 1237.2C610.641 1236.67 606.292 1235.17 605.028 1233.99L605.21 1233.64C604.547 1232.37 600.357 1230.66 598.799 1229.91C599.226 1219.81 597.054 1212.64 597.471 1202.8C599.13 1163.56 623.996 1149.96 643.857 1120.48C650.621 1110.71 653.974 1099.85 658.671 1089.11C659.834 1086.45 659.843 1083.61 661.156 1080.99L660.547 1080.08C670.062 1062.43 673.967 1039.19 685.44 1024.77C703.935 1001.53 722.428 992.637 737.56 965.157L738.515 965.102C740.652 960.551 741.989 955.668 742.469 950.664Z"/><path fill="#693788" d="M768 985.717L768 1141.66C758.462 1144.08 749.508 1146.05 740.204 1149.33C745.898 1142.4 767.029 1145.17 766.985 1137.55C764.84 1135.15 746.481 1133.11 741.788 1131.7C721.036 1125.44 703.269 1109.67 698.045 1087.98C694.265 1072.29 690.347 1043.11 698.327 1028.39C707.878 1010.77 732.388 1004.28 750.196 999.326C754.174 998.234 761.122 1000.65 765.561 999.407C766.514 997.45 766.104 987.727 766.068 985.042L768 985.717Z"/><defs><linearGradient id="gradient_2" gradientUnits="userSpaceOnUse" x1="464.15472" y1="1251.7759" x2="498.29095" y2="1376.3986"><stop offset="0" stop-color="#F59A4B"/><stop offset="1" stop-color="#61248F"/></linearGradient></defs><path fill="url(#gradient_2)" d="M392.507 1276.87L393.307 1278.23C402.762 1278.23 419.309 1265.62 427.622 1262.83C444.324 1257.24 464.919 1255.59 482.367 1257.58C483.066 1257.65 491.947 1257.7 491.982 1257.69L492.51 1257.99C507.637 1266.63 517.98 1285.62 533.578 1293.83C556.934 1306.12 585.847 1302.88 608.019 1318.88C609.365 1319.85 613.111 1322.64 613.903 1323.85C621.124 1329.76 624.897 1335.93 629.233 1344L445.281 1344L349.274 1344C356.309 1322.3 376.454 1292.83 392.507 1276.87Z"/><path fill="#693788" d="M613.903 1323.85C621.124 1329.76 624.897 1335.93 629.233 1344L445.281 1344L445.306 1342.83C447.105 1340.66 454.742 1341.93 458.13 1341.97C467.671 1342.1 474.057 1339.01 483.082 1336.71C490.628 1334.8 498.265 1333.27 505.964 1332.13C535.382 1327.91 585.451 1323.08 610.802 1342.03C614.679 1341.99 622.822 1342.88 625.682 1341.17C626.542 1336.1 614.31 1328.76 613.903 1323.85Z"/><defs><linearGradient id="gradient_3" gradientUnits="userSpaceOnUse" x1="136.25488" y1="1241.4604" x2="125.17551" y2="1348.5496"><stop offset="0" stop-color="#8E4C74"/><stop offset="1" stop-color="#5D338E"/></linearGradient></defs><path fill="url(#gradient_3)" d="M118.424 1230.28C120.768 1229.37 121.994 1226.65 122.675 1226.75C136.393 1228.98 149.421 1229.11 162.347 1234.78C179.664 1242.38 195.386 1255.15 202.471 1273.13C206.318 1282.9 209.046 1300.93 207.668 1311.29C202.38 1314.81 193.614 1319.05 187.57 1320.85C174.358 1327.23 167.937 1330.73 160.239 1344L82.4518 1344L36.0556 1344C42.0054 1319.8 61.7924 1320.38 81.6647 1316.51C104.503 1308.32 110.4 1292.52 109.575 1269.54C109.423 1265.33 109.415 1256.16 110.669 1252.31C110.85 1246.97 115.016 1234.49 118.424 1230.28Z"/><defs><linearGradient id="gradient_4" gradientUnits="userSpaceOnUse" x1="181.7291" y1="1246.4027" x2="155.79111" y2="1278.8464"><stop offset="0" stop-color="#B26565"/><stop offset="1" stop-color="#A5586C"/></linearGradient></defs><path fill="url(#gradient_4)" d="M118.424 1230.28C120.768 1229.37 121.994 1226.65 122.675 1226.75C136.393 1228.98 149.421 1229.11 162.347 1234.78C179.664 1242.38 195.386 1255.15 202.471 1273.13C206.318 1282.9 209.046 1300.93 207.668 1311.29C202.38 1314.81 193.614 1319.05 187.57 1320.85L186.644 1320.54C187.136 1319.68 197.209 1315.63 198.865 1314.91C199.064 1311.57 194.45 1290.61 193.114 1286.64C187.587 1270.23 174.802 1256.88 159.267 1249.41C142.062 1241.13 131.288 1239.37 112.953 1245.48C112.47 1248.2 112.084 1250.38 111.351 1253.05L110.669 1252.31C110.85 1246.97 115.016 1234.49 118.424 1230.28Z"/><defs><linearGradient id="gradient_5" gradientUnits="userSpaceOnUse" x1="39.33593" y1="1330.3317" x2="57.980469" y2="1332.7526"><stop offset="0" stop-color="#D36D5B"/><stop offset="1" stop-color="#A0516C"/></linearGradient></defs><path fill="url(#gradient_5)" d="M81.6647 1316.51C78.4205 1319.92 65.6441 1319.88 60.355 1321.18C58.986 1327.75 57.623 1335.62 56.0745 1342.03C62.297 1341.95 75.829 1341.5 81.2628 1342.33C81.6554 1342.89 82.0518 1343.45 82.4518 1344L36.0556 1344C42.0054 1319.8 61.7924 1320.38 81.6647 1316.51Z"/><defs><linearGradient id="gradient_6" gradientUnits="userSpaceOnUse" x1="69.825897" y1="1010.192" x2="-2.9101343" y2="1035.6246"><stop offset="0" stop-color="#FB9A45"/><stop offset="1" stop-color="#B35C67"/></linearGradient></defs><path fill="url(#gradient_6)" d="M0 928.382L0.34596 928.994C7.30204 941.447 6.04204 954.34 17.9467 968.404C40.0347 994.498 71.0209 996.255 79.5554 1034.86C80.6531 1039.83 82.023 1048.82 81.0128 1053.75C80.0356 1071.21 72.103 1087.54 58.9888 1099.1C57.1751 1100.71 55.3038 1102.06 53.3067 1103.44L52.9 1103.78C48.0073 1107.86 41.5905 1111.2 36.4781 1115.45C32.8733 1118.45 28.7661 1125.13 26.3091 1127.47C14.1705 1154.32 21.4503 1170 0 1192.28L0 1031.77L0 928.382Z"/><defs><linearGradient id="gradient_7" gradientUnits="userSpaceOnUse" x1="32.998104" y1="1097.7655" x2="-15.105467" y2="1108.1575"><stop offset="0" stop-color="#B86765"/><stop offset="1" stop-color="#5F318E"/></linearGradient></defs><path fill="url(#gradient_7)" d="M0 1031.77C0.851777 1029.89 1.8668 1029.09 1.9128 1027.13C1.94899 1025.58 1.57946 1023.38 2.41801 1022.25C4.50239 1022.94 4.52502 1024.32 5.75138 1025.25C12.0663 1029.92 15.9651 1036.85 19.5518 1043.64C30.6616 1064.66 26.7413 1087.7 25.8699 1110.37C25.589 1117.68 29.5024 1121.36 25.3201 1126.86L25.856 1127.46L26.3091 1127.47C14.1705 1154.32 21.4503 1170 0 1192.28L0 1031.77Z"/><path fill="#EE9E4E" d="M53.3067 1103.44C52.9418 1101.54 54.5059 1101.14 56.1887 1099.72C60.7688 1095.88 64.2229 1092.32 67.8537 1087.64C76.5345 1076.46 75.1165 1064.85 80.2119 1052.33L81.0128 1053.75C80.0356 1071.21 72.103 1087.54 58.9888 1099.1C57.1751 1100.71 55.3038 1102.06 53.3067 1103.44Z"/><defs><linearGradient id="gradient_8" gradientUnits="userSpaceOnUse" x1="701.15912" y1="312.97119" x2="775.38708" y2="287.22598"><stop offset="0" stop-color="#FBA045"/><stop offset="1" stop-color="#AA5669"/></linearGradient></defs><path fill="url(#gradient_8)" d="M747.279 201.651C754.632 180.403 751.211 167.944 768 148.925L768 290.543L768 393.329C763.295 381.604 761.876 370.759 754.245 359.95C735.161 332.917 706.918 335.552 695.445 299.841C688.094 276.957 693.689 250.77 712.067 234.837C727.233 221.687 737.419 221.148 747.279 201.651Z"/><defs><linearGradient id="gradient_9" gradientUnits="userSpaceOnUse" x1="745.15497" y1="227.17348" x2="777.81891" y2="221.16333"><stop offset="0" stop-color="#AF636A"/><stop offset="1" stop-color="#6F3A88"/></linearGradient></defs><path fill="url(#gradient_9)" d="M747.279 201.651C754.632 180.403 751.211 167.944 768 148.925L768 290.543C767.678 291.812 766.997 292.497 766.196 293.539L765.26 293.431C751.911 276.565 749.767 254.216 748.779 233.396C748.39 225.189 750.091 215.896 748.139 207.5C747.448 204.528 748.253 203.59 747.279 201.651Z"/><defs><linearGradient id="gradient_10" gradientUnits="userSpaceOnUse" x1="267.03012" y1="55.453335" x2="250.51965" y2="-21.814884"><stop offset="0" stop-color="#BB6765"/><stop offset="1" stop-color="#66328B"/></linearGradient></defs><path fill="url(#gradient_10)" d="M136.661 0L294.081 0L346.953 0C347.46 0.428664 348.084 0.956605 348.825 1.58382C355.783 2.71003 366.314 1.6714 372.974 2.09861C367.809 9.43861 363.005 13.0814 357.665 19.0098C326.912 53.1474 286.656 51.8938 244.652 47.5303C242.714 47.329 232.311 49.7009 230.082 50.788L228.216 50.4279L227.919 50.7611C224.296 49.9999 216.833 46.2125 212.089 45.2012C187.982 40.0627 159.54 35.6869 144.579 13.2007C142.309 11.7315 137.943 2.75821 136.661 0Z"/><path fill="#693788" d="M136.661 0L294.081 0C292.905 3.23112 275.561 9.32671 271.387 10.4754C257.636 14.2595 243.286 16.2255 229.145 17.673C196.658 20.9987 173.005 22.9663 146.351 2.02813L138.758 2.0415C140.099 4.40702 144.816 11.5128 144.579 13.2007C142.309 11.7315 137.943 2.75821 136.661 0Z"/><defs><linearGradient id="gradient_11" gradientUnits="userSpaceOnUse" x1="561.08069" y1="119.58745" x2="625.69757" y2="47.45163"><stop offset="0" stop-color="#F8A348"/><stop offset="1" stop-color="#732F7F"/></linearGradient></defs><path fill="url(#gradient_11)" d="M597.98 12.1637C596.545 15.4545 592.469 17.0665 589.157 18.742C588.887 25.9934 587.774 35.8177 589.433 42.939C594.425 64.363 614.465 82.2261 636.729 83.0389C645.608 83.3631 651.023 79.8746 658.379 75.7891C658.377 79.1131 657.589 91.5004 658.081 93.351C654.564 108.716 645.054 122.04 631.664 130.361C625.142 134.491 610.402 140.555 602.943 139.727C597.629 138.522 578.458 133.417 574.867 130.059C563.181 119.132 542.425 107.861 538.645 91.1201C537.196 84.7013 538.397 78.3149 537.095 72.4047L536.973 71.875C536.88 70.0172 537.449 66.5091 537.902 64.7395C542.48 46.8802 553.231 32.7134 570.174 25.0868C580.669 20.3625 588.017 18.3153 597.98 12.1637Z"/><defs><linearGradient id="gradient_12" gradientUnits="userSpaceOnUse" x1="344.32968" y1="88.267731" x2="316.17474" y2="16.49922"><stop offset="0" stop-color="#F7A448"/><stop offset="1" stop-color="#B95E68"/></linearGradient></defs><path fill="url(#gradient_12)" d="M346.953 0L412.293 0C399.205 32.8921 370.046 78.6036 336.039 93.2622C318.196 100.953 300.149 101.109 282.241 93.8747C263.627 86.355 256.226 75.1993 242.453 61.6175C237.112 56.3498 233.049 54.6619 227.919 50.7611L228.216 50.4279L230.082 50.788C232.311 49.7009 242.714 47.329 244.652 47.5303C286.656 51.8938 326.912 53.1474 357.665 19.0098C363.005 13.0814 367.809 9.43861 372.974 2.09861C366.314 1.6714 355.783 2.71003 348.825 1.58382C348.084 0.956605 347.46 0.428664 346.953 0Z"/><defs><linearGradient id="gradient_13" gradientUnits="userSpaceOnUse" x1="677.38739" y1="60.31739" x2="623.25146" y2="-9.9089603"><stop offset="0" stop-color="#7B417F"/><stop offset="1" stop-color="#60358C"/></linearGradient></defs><path fill="url(#gradient_13)" d="M607.673 0L700.851 0C703.832 3.18532 709.244 2.08693 713.592 1.9698C713.102 4.25656 710.521 18.8103 709.949 19.7728C707.386 20.3756 702.207 20.9899 700.664 22.4019L700.288 22.5091C694.199 24.1822 688.239 24.1485 682.24 26.802C652.332 40.0311 663.217 69.7729 658.081 93.351C657.589 91.5004 658.377 79.1131 658.379 75.7891C651.023 79.8746 645.608 83.3631 636.729 83.0389C614.465 82.2261 594.425 64.363 589.433 42.939C587.774 35.8177 588.887 25.9934 589.157 18.742C592.469 17.0665 596.545 15.4545 597.98 12.1637C598.758 10.8265 604.258 5.92952 607.673 0Z"/><path fill="#EE9E4E" d="M660.547 1080.08L661.156 1080.99C659.843 1083.61 659.834 1086.45 658.671 1089.11C653.974 1099.85 650.621 1110.71 643.857 1120.48C623.996 1149.96 599.13 1163.56 597.471 1202.8C597.054 1212.64 599.226 1219.81 598.799 1229.91C600.357 1230.66 604.547 1232.37 605.21 1233.64L605.028 1233.99C582.111 1226.41 564.431 1199.53 562.587 1175.95C560.249 1147.17 576.444 1120.08 602.905 1108.51C626.76 1098.04 640.678 1103.38 660.547 1080.08Z"/><defs><linearGradient id="gradient_14" gradientUnits="userSpaceOnUse" x1="712.70892" y1="851.48981" x2="778.90411" y2="897.00818"><stop offset="0" stop-color="#FBB347"/><stop offset="1" stop-color="#CC6D5B"/></linearGradient></defs><path fill="url(#gradient_14)" d="M737.56 965.157C754.658 916.047 715.265 911.602 713.4 868.943C712.001 836.952 736.028 812.519 768 811.639L768 985.717L766.068 985.042C765.345 978.677 765.935 962.885 765.968 955.889L766.031 900.713C761.439 915.076 751.563 939.378 742.469 950.664C741.989 955.668 740.652 960.551 738.515 965.102L737.56 965.157Z"/><defs><linearGradient id="gradient_15" gradientUnits="userSpaceOnUse" x1="211.77745" y1="1217.5494" x2="165.28882" y2="1267.4355"><stop offset="0" stop-color="#F7AC4C"/><stop offset="1" stop-color="#B25C66"/></linearGradient></defs><path fill="url(#gradient_15)" d="M118.424 1230.28C124.764 1217.55 138.042 1207.86 151.335 1203.38C166.707 1198.07 183.576 1199.2 198.105 1206.51C213.141 1213.83 224.555 1226.95 229.732 1242.85C234.916 1258.24 233.764 1275.05 226.53 1289.59C222.161 1298.29 215.675 1305.75 207.668 1311.29C209.046 1300.93 206.318 1282.9 202.471 1273.13C195.386 1255.15 179.664 1242.38 162.347 1234.78C149.421 1229.11 136.393 1228.98 122.675 1226.75C121.994 1226.65 120.768 1229.37 118.424 1230.28Z"/><defs><linearGradient id="gradient_16" gradientUnits="userSpaceOnUse" x1="169.4635" y1="204.85582" x2="201.20882" y2="231.61102"><stop offset="0" stop-color="#ED964E"/><stop offset="1" stop-color="#FBC556"/></linearGradient></defs><path fill="url(#gradient_16)" d="M194.438 134.722C208.077 145.413 215.893 161.896 218.295 178.681C223.59 215.662 198.125 249.935 161.477 256.171C144.526 259.056 139.722 259.976 124.473 267.374L123.446 267.117C124.784 264.141 133.85 262.917 136.404 259.412C144.756 247.945 151.463 240.436 162.191 231.187C181.454 214.58 199.434 196.384 205.117 170.679C206.067 166.385 208.784 161.275 209.839 156.912C210.046 150.484 194.817 139.154 194.438 134.722Z"/><defs><linearGradient id="gradient_17" gradientUnits="userSpaceOnUse" x1="42.130627" y1="146.11295" x2="-4.9592257" y2="121.56606"><stop offset="0" stop-color="#CB775D"/><stop offset="1" stop-color="#A85C6B"/></linearGradient></defs><path fill="url(#gradient_17)" d="M0 108.161C15.3361 99.3187 34.4062 102.484 43.381 118.431C47.2785 125.363 48.2246 133.571 46.0066 141.208C43.7472 149.004 38.4117 155.546 31.2277 159.328C23.6783 163.193 14.9028 163.902 6.83067 161.299C4.73988 160.622 2.0025 159.295 0 158.334L0 108.161Z"/><defs><linearGradient id="gradient_18" gradientUnits="userSpaceOnUse" x1="726.40045" y1="1212.9939" x2="772.36627" y2="1230.6505"><stop offset="0" stop-color="#D17B5C"/><stop offset="1" stop-color="#AB5F6F"/></linearGradient></defs><path fill="url(#gradient_18)" d="M768 1250.09L767.679 1250.22C758.983 1253.84 750.308 1254.84 741.421 1251.08C734.186 1248 728.518 1242.11 725.723 1234.76C722.698 1227.18 722.894 1218.69 726.264 1211.25C733.97 1193.85 751.561 1190.11 768 1197.44L768 1250.09Z"/><path fill="#EE9E4E" d="M392.507 1276.87C418.194 1248.28 457.976 1233.76 491.982 1257.69C491.947 1257.7 483.066 1257.65 482.367 1257.58C464.919 1255.59 444.324 1257.24 427.622 1262.83C419.309 1265.62 402.762 1278.23 393.307 1278.23L392.507 1276.87Z"/><path fill="#EE9E4E" d="M536.973 71.875L537.095 72.4047C538.397 78.3149 537.196 84.7013 538.645 91.1201C542.425 107.861 563.181 119.132 574.867 130.059C578.458 133.417 597.629 138.522 602.943 139.727C598.039 140.192 593.479 140.185 588.596 139.472C572.476 137.076 557.971 128.369 548.278 115.271C539.317 103.1 534.673 86.9061 536.973 71.875Z"/><path fill="#BF5158" d="M700.851 0L732.76 0C726.19 14.9092 717.215 21.2403 700.664 22.4019C702.207 20.9899 707.386 20.3756 709.949 19.7728C710.521 18.8103 713.102 4.25656 713.592 1.9698C709.244 2.08693 703.832 3.18532 700.851 0Z"/><defs><linearGradient id="gradient_19" gradientUnits="userSpaceOnUse" x1="665.96265" y1="1268.5037" x2="689.39563" y2="1317.3562"><stop offset="0" stop-color="#C72D4A"/><stop offset="1" stop-color="#4D35AA"/></linearGradient></defs><path fill="url(#gradient_19)" d="M640.549 1277.06C643.199 1267.57 649.656 1259.6 658.389 1255.03C667.123 1250.47 677.355 1249.72 686.661 1252.96C704.996 1259.35 714.858 1279.22 708.856 1297.68C702.855 1316.14 683.192 1326.42 664.605 1320.8C646.018 1315.19 635.329 1295.76 640.549 1277.06Z"/><path fill="#DA323C" d="M640.549 1277.06C643.199 1267.57 649.656 1259.6 658.389 1255.03C667.123 1250.47 677.355 1249.72 686.661 1252.96C688.24 1254.26 689.351 1255.21 690.83 1256.67C688.559 1262.19 661.018 1271.93 654.76 1275.67C652.721 1276.89 643.716 1280.88 641.493 1281.09L640.761 1280.34L640.801 1279.94C640.932 1278.51 641.011 1278.36 640.549 1277.06Z"/><path fill="#9B3164" d="M62.9555 66.2504C61.472 50.842 70.1113 36.2392 84.3325 30.1174C98.5537 23.9956 115.102 27.756 125.279 39.4221C135.405 51.03 136.922 67.8295 129.04 81.0633C121.158 94.2972 105.662 100.968 90.6288 97.5984C75.5959 94.2288 64.4315 81.5819 62.9555 66.2504Z"/><path fill="#693788" d="M62.9555 66.2504C61.472 50.842 70.1113 36.2392 84.3325 30.1174C98.5537 23.9956 115.102 27.756 125.279 39.4221C120.675 38.1051 117.3 31.6954 112.904 32.0318C104.058 41.488 92.6981 46.4536 80.5677 50.9475C77.1456 52.2153 67.5302 52.1585 65.3504 53.555C63.8299 54.5292 64.1483 63.418 62.9555 66.2504Z"/><path fill="#E47F54" d="M509.802 1096.75C510.794 1078.95 535.302 1069.97 545.115 1086.69C551.161 1095.34 547.359 1106.89 539.113 1112.64C534.784 1115.71 529.41 1116.93 524.179 1116.03C516.257 1114.59 506.914 1104.37 509.802 1096.75Z"/><path fill="#EE9E4E" d="M509.802 1096.75C510.794 1078.95 535.302 1069.97 545.115 1086.69L544.09 1086.96L543.706 1086.49C541.87 1084.3 540.858 1083.55 538.58 1081.82C537.339 1081.82 537.244 1082.05 536.376 1082.75C533.729 1084.89 525.066 1084.49 521.342 1084.45C517.944 1086.86 515.056 1088.79 512.034 1091.69C511.46 1093.57 510.914 1095.47 510.397 1097.36L509.802 1096.75Z"/><path fill="#EE9E4E" d="M241.64 248.852C246.027 243.465 253.128 241.09 259.874 242.752C266.62 244.414 271.804 249.815 273.186 256.623C274.846 264.807 270.648 273.055 263.053 276.531C255.459 280.006 246.47 277.791 241.36 271.186C236.25 264.581 236.366 255.327 241.64 248.852Z"/><path fill="#BF5158" d="M241.64 248.852C246.027 243.465 253.128 241.09 259.874 242.752C266.62 244.414 271.804 249.815 273.186 256.623C270.606 255.917 262.761 259.923 258.794 260.099C250.125 260.483 247.519 253.735 241.64 248.852Z"/><defs><linearGradient id="gradient_20" gradientUnits="userSpaceOnUse" x1="75.540443" y1="938.08282" x2="82.069221" y2="965.33948"><stop offset="0" stop-color="#F23B36"/><stop offset="1" stop-color="#BC334E"/></linearGradient></defs><path fill="url(#gradient_20)" d="M78.4674 936.823C86.9175 936.453 94.0643 943.009 94.421 951.458C94.7776 959.906 88.2088 967.041 79.7575 967.384C71.3253 967.726 64.2085 961.177 63.8527 952.747C63.4968 944.318 70.0363 937.192 78.4674 936.823Z"/><defs><linearGradient id="gradient_21" gradientUnits="userSpaceOnUse" x1="533.32623" y1="1223.3541" x2="541.27515" y2="1248.9255"><stop offset="0" stop-color="#FBB54E"/><stop offset="1" stop-color="#D06E60"/></linearGradient></defs><path fill="url(#gradient_21)" d="M534.065 1222.24C539.256 1220.95 544.744 1222.56 548.407 1226.46C552.069 1230.36 553.332 1235.94 551.707 1241.04C550.082 1246.13 545.824 1249.95 540.58 1251.02C532.719 1252.61 525.025 1247.63 523.254 1239.81C521.484 1231.99 526.285 1224.19 534.065 1222.24Z"/><path fill="#EE9E4E" d="M233.375 119.32C235.48 114.006 240.512 110.426 246.224 110.179C251.935 109.933 257.258 113.066 259.813 118.179C262.788 124.133 261.322 131.348 256.26 135.671C251.197 139.993 243.84 140.311 238.423 136.441C233.007 132.571 230.924 125.509 233.375 119.32Z"/><path fill="#BF5158" d="M233.375 119.32C235.48 114.006 240.512 110.426 246.224 110.179C251.935 109.933 257.258 113.066 259.813 118.179C252.089 120.574 240.903 122.724 233.375 119.32Z"/><path fill="#DA323C" d="M696.945 365.925C703.408 363.921 710.278 367.5 712.339 373.942C714.4 380.385 710.882 387.285 704.456 389.403C697.949 391.548 690.941 387.977 688.853 381.452C686.766 374.928 690.401 367.953 696.945 365.925Z"/><defs><linearGradient id="gradient_22" gradientUnits="userSpaceOnUse" x1="81.337456" y1="1200.9264" x2="81.4067" y2="1212.811"><stop offset="0" stop-color="#F1A14D"/><stop offset="1" stop-color="#DF8D5F"/></linearGradient></defs><path fill="url(#gradient_22)" d="M71.9687 1218.74C68.5046 1213.78 69.3168 1207.01 73.8565 1203.01C78.3961 1199 85.2179 1199.04 89.7112 1203.1C94.2044 1207.15 94.9387 1213.93 91.4178 1218.86C89.1684 1222 85.5314 1223.86 81.6643 1223.84C77.7972 1223.81 74.1818 1221.91 71.9687 1218.74Z"/><path fill="#BF5158" d="M71.9687 1218.74C75.8649 1216.32 79.304 1213.43 83.9353 1214.54C86.9373 1215.26 90.2158 1218.55 91.4178 1218.86C89.1684 1222 85.5314 1223.86 81.6643 1223.84C77.7972 1223.81 74.1818 1221.91 71.9687 1218.74Z"/><path fill="#EE9E4E" d="M686.181 116.439C692.384 115.312 698.326 119.427 699.453 125.628C700.58 131.83 696.464 137.771 690.261 138.897C684.058 140.023 678.116 135.909 676.989 129.707C675.863 123.506 679.978 117.565 686.181 116.439Z"/><path fill="#EE9E4E" d="M51.1298 904.428C66.1143 902.445 71.7387 918.389 59.4743 924.328C53.9816 924.949 49.1543 924.984 45.6826 919.845C44.3214 917.824 43.8402 915.336 44.3497 912.952C45.2192 908.74 47.7526 906.656 51.1298 904.428Z"/><path fill="#EE9E4E" d="M701.922 397.411C709.556 396.619 721.741 403.664 710.044 412.588C699.828 415.633 692.9 405.94 701.922 397.411Z"/><path fill="#DA323C" d="M490.186 1177.83C492.39 1175.25 496.001 1174.36 499.152 1175.63C502.302 1176.9 504.286 1180.05 504.076 1183.44C503.865 1186.83 501.509 1189.71 498.225 1190.58C494.887 1191.47 491.36 1190.08 489.518 1187.16C487.676 1184.24 487.947 1180.46 490.186 1177.83Z"/><path fill="#E9605C" d="M490.186 1177.83C490.597 1178.2 498.118 1190.24 498.225 1190.58C494.887 1191.47 491.36 1190.08 489.518 1187.16C487.676 1184.24 487.947 1180.46 490.186 1177.83Z"/><defs><linearGradient id="gradient_23" gradientUnits="userSpaceOnUse" x1="288.21216" y1="184.65276" x2="290.70874" y2="172.95273"><stop offset="0" stop-color="#DB393D"/><stop offset="1" stop-color="#FB584B"/></linearGradient></defs><path fill="url(#gradient_23)" d="M288.591 172.249C292.417 171.138 296.433 173.274 297.65 177.066C298.868 180.859 296.846 184.931 293.088 186.255C290.562 187.144 287.751 186.592 285.75 184.811C283.749 183.031 282.874 180.304 283.464 177.692C284.055 175.08 286.019 172.995 288.591 172.249Z"/></svg>